# xmcd
# 
# Track frame offsets:
#     150
#     19211
#     31170
#     52388
#     65577
#     80631
#     96572
#     113188
#     132693
#     151746
#     175608
#     194754
#     212505
#     226348
#     241590
#     254078
#     269301
#     288885
#     307769
#     326152
# 
# Disc length: 4573
# 
# Revision: 4
# Processed by: cddbd v1.5.2PL0 Copyright (c) Steve Scherf et al.
# Submitted via: BonkEnc v1.0.6
# 
DISCID=2511db14
DTITLE=Various Artist - Best Of AUSTRO-POP CD 1
DYEAR=2001
DGENRE=Austropop
TTITLE0=Reinhard Fendrich - Macho Macho
TTITLE1=Wolfgang Ambros - Die Blume aus dem Gemeindebau
TTITLE2=STS - Großvater
TTITLE3=Ostbahn Kurti and Die Chefpartie - Feuer
TTITLE4=Falco - Amadeus
TTITLE5=EAV - Märchenprinz
TTITLE6=Georg Danzer - Jö schau
TTITLE7=Peter Cornelius - Du entschuldige  - I kenn´ di
TTITLE8=Reinhard Fendrich - Vü, vü schener is des G´fühl
TTITLE9=Hubert von Goisern - Koa Hiatamadl
TTITLE10=OPUS - Life is Life
TTITLE11=Joesi Prokopetz - Sind Sie Single?
TTITLE12=Wolfgang Ambros - Da Hofa
TTITLE13=Hans Orsolic - Mei potschertes Leb´n
TTITLE14=Johann K. - Lonely Boy
TTITLE15=Ludwig Hirsch - Spuck den Schnuller aus
TTITLE16=Hansi Dujmic - Ausgeliefert
TTITLE17=Bilgeri - Video Life
TTITLE18=Carl Peyer - Romeo und Julia
TTITLE19=Reinhard Fendrich - I Am From Austria
EXTD=
EXTT0=
EXTT1=
EXTT2=
EXTT3=
EXTT4=
EXTT5=
EXTT6=
EXTT7=
EXTT8=
EXTT9=
EXTT10=
EXTT11=
EXTT12=
EXTT13=
EXTT14=
EXTT15=
EXTT16=
EXTT17=
EXTT18=
EXTT19=
PLAYORDER=
